<svg width="194" height="26" viewBox="0 0 194 26" fill="none" xmlns="http://www.w3.org/2000/svg">
<g clip-path="url(#clip0_22_331)">
<path d="M5.59087 22.5033C4.11694 22.5487 2.68482 22.0095 1.60687 21.0033C1.0723 20.4679 0.65366 19.8282 0.377018 19.1241C0.100377 18.4199 -0.0283432 17.6663 -0.00112679 16.9103V9.05828C-0.0460495 8.31725 0.0667904 7.57512 0.329937 6.88093C0.593084 6.18674 1.00055 5.5563 1.5254 5.03125C2.05026 4.50621 2.68055 4.09852 3.37465 3.83512C4.06874 3.57173 4.81083 3.45862 5.55187 3.50328H13.4449C14.1867 3.47766 14.926 3.60378 15.6175 3.87392C16.3089 4.14405 16.9379 4.55252 17.4659 5.07428C17.9744 5.60237 18.3721 6.22696 18.6354 6.91121C18.8987 7.59545 19.0223 8.3255 18.9989 9.05828V16.9493C19.0276 17.6964 18.9031 18.4414 18.6331 19.1386C18.3631 19.8358 17.9533 20.4704 17.4289 21.0033C16.3375 22.0126 14.8926 22.5514 13.4069 22.5033H5.59087ZM2.79887 6.26228C2.44703 6.63543 2.1741 7.07575 1.99643 7.55687C1.81876 8.03798 1.74 8.55 1.76487 9.06228V16.9153C1.73785 17.432 1.81552 17.9489 1.9932 18.4348C2.17088 18.9208 2.44492 19.3658 2.79887 19.7433C3.5664 20.4285 4.57094 20.7872 5.59887 20.7433H13.4149C14.4428 20.7871 15.4473 20.4284 16.2149 19.7433C16.5833 19.3796 16.8723 18.9434 17.0635 18.4623C17.2548 17.9812 17.3441 17.4657 17.3259 16.9483V9.05828C17.3452 8.03929 16.9701 7.05225 16.2789 6.30328C15.9058 5.95129 15.4655 5.67827 14.9844 5.50059C14.5032 5.32291 13.9912 5.24423 13.4789 5.26928H5.59087C4.5656 5.21862 3.56191 5.57559 2.79887 6.26228ZM4.59887 12.9623C4.59887 11.9931 4.88625 11.0458 5.42467 10.24C5.96309 9.43418 6.72837 8.80614 7.62372 8.43527C8.51908 8.0644 9.50431 7.96736 10.4548 8.15643C11.4053 8.3455 12.2784 8.81218 12.9637 9.49745C13.649 10.1827 14.1157 11.0558 14.3047 12.0063C14.4938 12.9568 14.3968 13.9421 14.0259 14.8374C13.655 15.7328 13.027 16.4981 12.2212 17.0365C11.4154 17.5749 10.468 17.8623 9.49887 17.8623C8.20072 17.8594 6.95653 17.3426 6.03832 16.425C5.1201 15.5073 4.60257 14.2634 4.59887 12.9653V12.9623ZM6.36187 12.9623C6.36148 13.5838 6.54546 14.1914 6.89053 14.7083C7.23561 15.2252 7.72626 15.6281 8.3004 15.866C8.87454 16.1039 9.50636 16.1662 10.1159 16.0449C10.7254 15.9236 11.2853 15.6242 11.7246 15.1846C12.1639 14.745 12.463 14.1849 12.5839 13.5753C12.7048 12.9657 12.6421 12.3339 12.4038 11.76C12.1655 11.186 11.7623 10.6956 11.2452 10.3508C10.7281 10.0061 10.1204 9.82248 9.49887 9.82328C8.66671 9.8267 7.86962 10.1589 7.28128 10.7474C6.69294 11.3359 6.36103 12.1331 6.35787 12.9653L6.36187 12.9623ZM13.4869 7.94228C13.4879 7.7228 13.5538 7.50853 13.6765 7.32651C13.7991 7.14449 13.9729 7.00287 14.1759 6.91951C14.379 6.83616 14.6021 6.81481 14.8173 6.85816C15.0325 6.90151 15.23 7.00762 15.3849 7.16309C15.5398 7.31857 15.6452 7.51644 15.6878 7.73175C15.7303 7.94706 15.7082 8.17016 15.6241 8.37289C15.54 8.57563 15.3978 8.74892 15.2153 8.87089C15.0329 8.99287 14.8184 9.05808 14.5989 9.05828C14.4524 9.0588 14.3073 9.0304 14.1719 8.97469C14.0364 8.91898 13.9133 8.83706 13.8096 8.73364C13.7059 8.63023 13.6237 8.50734 13.5676 8.37205C13.5115 8.23676 13.4827 8.09173 13.4829 7.94528L13.4869 7.94228Z" fill="#005CFF"/>
<path d="M69.3889 9.05954H65.8519V6.73954C65.8328 6.60171 65.8443 6.46136 65.8856 6.32849C65.927 6.19563 65.9971 6.07353 66.0911 5.97093C66.1851 5.86833 66.3006 5.78776 66.4294 5.73497C66.5581 5.68218 66.697 5.65847 66.8359 5.66554H69.3359V1.83554L65.8939 1.82654C62.0779 1.82654 61.2099 4.68254 61.2099 6.51054V9.06354H59.0029V13.0065H61.2099V24.1735H65.8519V13.0065H68.9839L69.3889 9.05954Z" fill="#005CFF"/>
<path d="M113.114 20.365C112.755 20.2222 112.434 19.9971 112.177 19.7077C111.921 19.4184 111.736 19.0728 111.638 18.699C111.205 16.7539 111.011 14.7631 111.062 12.771C111.012 10.7813 111.205 8.79285 111.637 6.84998C111.733 6.47666 111.916 6.13119 112.17 5.84133C112.425 5.55146 112.743 5.32529 113.101 5.18098C116.488 3.88698 121.835 3.84998 122.434 3.84998H122.472C123.1 3.84998 128.447 3.88698 131.822 5.17598C132.181 5.31892 132.501 5.54412 132.758 5.83347C133.014 6.12282 133.198 6.46825 133.297 6.84198C133.73 8.78709 133.923 10.7779 133.873 12.77C133.923 14.761 133.73 16.7508 133.298 18.695C133.201 19.0675 133.018 19.4122 132.763 19.7013C132.509 19.9904 132.191 20.216 131.834 20.36C128.447 21.654 123.1 21.691 122.501 21.691C121.836 21.692 116.488 21.65 113.114 20.365ZM113.695 6.69898C113.577 6.74789 113.473 6.82338 113.39 6.91951C113.306 7.01564 113.247 7.12979 113.215 7.25298C112.817 9.06423 112.641 10.9172 112.691 12.771C112.641 14.6258 112.817 16.4798 113.216 18.292C113.248 18.4169 113.31 18.5325 113.395 18.6294C113.48 18.7263 113.587 18.8019 113.707 18.85C116.85 20.05 122.207 20.065 122.434 20.065C122.727 20.065 128.085 20.051 131.24 18.846C131.357 18.7971 131.462 18.7216 131.545 18.6254C131.628 18.5293 131.688 18.4152 131.72 18.292C132.118 16.4804 132.294 14.6271 132.244 12.773C132.294 10.9175 132.118 9.0628 131.719 7.24998C131.686 7.12562 131.624 7.01068 131.539 6.91433C131.454 6.81797 131.347 6.74286 131.228 6.69498C128.085 5.49498 122.728 5.47998 122.501 5.47998H122.434C122.208 5.47898 116.85 5.49298 113.695 6.69898ZM120.454 16.75C120.324 16.6804 120.215 16.5768 120.14 16.4504C120.064 16.324 120.024 16.1793 120.024 16.032V9.51198C120.024 9.36451 120.064 9.21976 120.139 9.09319C120.215 8.96662 120.324 8.86299 120.454 8.79337C120.584 8.72375 120.73 8.69075 120.877 8.69791C121.025 8.70506 121.167 8.75209 121.29 8.83398L126.178 12.093C126.289 12.1673 126.381 12.268 126.444 12.3862C126.507 12.5044 126.541 12.6364 126.541 12.7705C126.541 12.9045 126.507 13.0365 126.444 13.1547C126.381 13.2729 126.289 13.3737 126.178 13.448L121.29 16.707C121.167 16.7886 121.025 16.8354 120.877 16.8425C120.73 16.8495 120.584 16.8165 120.454 16.747V16.75ZM121.654 14.51L124.254 12.773L121.654 11.037V14.51Z" fill="#005CFF"/>
<path d="M191.32 6.99049C191.179 6.9171 191.041 6.83666 190.907 6.74949C190.519 6.49311 190.162 6.19095 189.845 5.84949C189.223 5.15433 188.808 4.2992 188.645 3.38049C188.587 3.09104 188.57 2.7946 188.597 2.50049H184.999V16.4455C184.999 16.6325 184.999 16.8175 184.991 17.0005C184.991 17.0235 184.991 17.0445 184.991 17.0685C184.992 17.0788 184.992 17.0892 184.991 17.0995V17.1075C184.953 17.608 184.793 18.0914 184.524 18.5153C184.256 18.9393 183.887 19.2906 183.45 19.5385C182.996 19.7972 182.481 19.933 181.958 19.9325C181.146 19.9325 180.367 19.6098 179.793 19.0355C179.218 18.4612 178.896 17.6822 178.896 16.87C178.896 16.0578 179.218 15.2788 179.793 14.7045C180.367 14.1301 181.146 13.8075 181.958 13.8075C182.276 13.8071 182.593 13.857 182.895 13.9555V10.2835C181.977 10.1649 181.045 10.2379 180.156 10.4978C179.268 10.7577 178.443 11.1989 177.733 11.7935C177.112 12.3323 176.59 12.9753 176.189 13.6935C175.683 14.6243 175.409 15.6632 175.389 16.7225C175.381 17.5367 175.512 18.3464 175.776 19.1165V19.1255C176.014 19.7651 176.344 20.3667 176.755 20.9115C177.201 21.4769 177.727 21.9735 178.317 22.3855V22.3765L178.326 22.3855C179.42 23.1064 180.7 23.4935 182.009 23.4995C182.953 23.4995 183.885 23.2948 184.741 22.8995C185.587 22.5006 186.342 21.933 186.96 21.2315C187.474 20.6353 187.883 19.9559 188.169 19.2225C188.433 18.4832 188.58 17.7071 188.604 16.9225V9.52249C188.648 9.54849 189.23 9.93449 189.23 9.93449C189.902 10.3297 190.625 10.629 191.379 10.8235C192.104 10.9895 192.842 11.09 193.585 11.1235V7.54349C192.796 7.55332 192.016 7.36307 191.32 6.99049Z" fill="#005CFF"/>
</g>
<defs>
<clipPath id="clip0_22_331">
<rect width="194" height="26" fill="white"/>
</clipPath>
</defs>
</svg>
