<svg width="153" height="27" viewBox="0 0 153 27" fill="none" xmlns="http://www.w3.org/2000/svg">
<path d="M150.196 0.00349122C149.224 0.0864632 148.482 0.90712 148.496 1.88268V25.1159C148.481 26.0917 149.224 26.9127 150.196 26.9957C150.695 27.0265 151.185 26.8498 151.55 26.5073C151.914 26.1649 152.121 25.6871 152.121 25.187V1.81212C152.121 1.312 151.914 0.834123 151.55 0.491627C151.185 0.149134 150.695 -0.027522 150.196 0.00349122Z" fill="black"/>
<path d="M51.5479 0.194273C50.6429 -0.258833 49.5419 0.107651 49.0889 1.01279L38.9633 21.2463C38.9616 21.2497 38.9582 21.2518 38.9544 21.2518C38.9507 21.2518 38.9473 21.2497 38.9456 21.2463L28.82 1.01279C28.3537 0.133336 27.2706 -0.213029 26.3805 0.232673C25.4905 0.678375 25.119 1.75312 25.5439 2.65331L37.22 25.987C37.5306 26.6082 38.1657 27.0003 38.8602 26.9997C38.8913 26.9997 38.9229 26.996 38.9543 26.9945C38.9856 26.9931 39.0173 26.9997 39.0486 26.9997C39.7431 27.0002 40.3782 26.6081 40.6889 25.987L52.3664 2.65331C52.8194 1.74823 52.453 0.647344 51.5479 0.194273Z" fill="black"/>
<path d="M109.868 0.185132C108.894 0.268952 108.15 1.09132 108.165 2.06897V19.8025L108.158 19.8122L108.147 19.8086L93.5033 0.710969C92.9291 -0.0364994 91.8791 -0.221505 91.084 0.284726C90.5519 0.634627 90.2359 1.23246 90.2463 1.8692V25.1123C90.2319 26.0898 90.9756 26.9121 91.9496 26.9958C92.4498 27.0268 92.9406 26.8497 93.3058 26.5065C93.6711 26.1632 93.8781 25.6843 93.8781 25.1831V7.19725L93.8847 7.1882L93.8955 7.19116L108.54 26.2882C109.123 27.0489 110.197 27.2256 110.994 26.6921C111.506 26.3386 111.807 25.7528 111.797 25.1309V1.99783C111.797 1.49691 111.59 1.01796 111.225 0.674653C110.86 0.331202 110.369 0.154125 109.868 0.185132Z" fill="black"/>
<path d="M141.248 0.000217901H119.302C118.326 -0.0145985 117.505 0.727902 117.422 1.70026C117.391 2.19929 117.568 2.68886 117.911 3.05315C118.253 3.41743 118.731 3.62407 119.231 3.62416L128.418 3.62416C128.423 3.62431 128.427 3.62864 128.428 3.63404L128.427 25.1161C128.413 26.0917 129.155 26.9126 130.127 26.9959C130.626 27.0266 131.116 26.8499 131.48 26.5074C131.844 26.1649 132.051 25.6872 132.051 25.1872V3.63404L132.06 3.62416L141.177 3.62416C142.153 3.63867 142.974 2.89625 143.057 1.92412C143.087 1.42504 142.911 0.935418 142.568 0.571123C142.226 0.206829 141.748 0.000231331 141.248 0.000217901Z" fill="black"/>
<path d="M15.341 1.01203C15.0146 0.36019 14.3329 -0.0361531 13.6049 0.0027457C12.8783 -0.0345063 12.1984 0.361554 11.8724 1.01203L0.194222 24.3466C-0.258795 25.2516 0.107667 26.3526 1.01274 26.8056C1.91781 27.2586 3.01875 26.8922 3.47177 25.9871L6.3405 20.2551C6.34208 20.2518 6.34548 20.2496 6.34921 20.2496H20.8642C20.8679 20.2496 20.8713 20.2518 20.8729 20.2551L23.7416 25.9871C24.1946 26.8921 25.2955 27.2585 26.2005 26.8055C27.1055 26.3524 27.4719 25.2516 27.0189 24.3466L15.341 1.01203ZM7.72579 17.4866L13.598 5.75327C13.5995 5.74986 13.6029 5.74767 13.6067 5.74767C13.6104 5.74767 13.6138 5.74986 13.6154 5.75327L19.4879 17.4866C19.4894 17.4896 19.4892 17.4932 19.4875 17.496C19.4857 17.4989 19.4825 17.5006 19.4792 17.5005H7.7345C7.73114 17.5006 7.72798 17.4989 7.7262 17.496C7.72442 17.4932 7.72426 17.4896 7.72579 17.4866Z" fill="black"/>
<path d="M84.7359 24.5175C84.7143 24.456 84.689 24.3958 84.6602 24.3372L73.9065 2.60866C73.3541 1.33172 72.2036 0.412438 70.8363 0.155321C69.4689 -0.101796 68.0631 0.336813 67.0846 1.32586L64.4423 6.35658L58.1012 19.713C57.0542 21.731 55.4032 23.0672 53.4363 23.535L63.1459 3.98466C63.1653 3.94488 63.1833 3.90452 63.1999 3.86358C63.3586 3.50681 63.7127 3.27712 64.1032 3.27764C64.1399 3.27826 64.1765 3.28098 64.2129 3.28577L65.8099 0.445208C64.7868 -0.0109959 63.6235 -0.0383404 62.5802 0.369285C61.5367 0.776911 60.7001 1.58553 60.2571 2.61446L49.4921 24.2931C49.4756 24.3242 49.4602 24.3558 49.4457 24.3886C49.2064 24.9182 49.2426 25.5314 49.5423 26.0292C49.8421 26.527 50.3672 26.8459 50.9472 26.8822C51.2401 26.9066 51.5365 26.9188 51.8295 26.9188C55.6834 26.9188 59.0945 24.7652 60.9531 21.1569C60.9609 21.1416 60.9688 21.1262 60.976 21.1102L67.0265 8.3644L67.0282 8.36034L67.082 8.24768L68.8532 4.52675L68.8505 4.52124L69.1171 3.95969C69.1283 3.93607 69.1388 3.91236 69.1487 3.88855C69.302 3.51872 69.663 3.27763 70.0633 3.27763C70.4637 3.27763 70.8247 3.51872 70.978 3.88855C70.991 3.92078 71.007 3.95272 71.0212 3.98408L80.6965 23.5341C78.7436 23.0649 77.1007 21.7295 76.0552 19.7136L69.6876 6.28458L67.9295 10.0348L73.1797 21.1079C73.1873 21.1236 73.1951 21.1395 73.203 21.1552C75.0903 24.8172 78.405 26.917 82.3002 26.917C82.6077 26.917 82.9189 26.9034 83.2252 26.8767C83.4192 26.86 83.6085 26.8079 83.7836 26.7228C84.6354 26.3556 85.0533 25.3892 84.7359 24.5175Z" fill="black"/>
</svg>
